<?xml version="1.0"?>
<svg xmlns="http://www.w3.org/2000/svg" viewBox="0 0 64 64" width="512" height="512"><g id="flat"><rect x="28" y="48" width="8" height="13" style="fill:#bfbfbf"/><rect x="3" y="36" width="4" height="12" style="fill:#394d5c"/><rect x="57" y="36" width="4" height="12" style="fill:#394d5c"/><polygon points="27 19 23 23 23 48 27 48 27 19" style="fill:#394d5c"/><polygon points="37 19 41 23 41 48 37 48 37 19" style="fill:#394d5c"/><polygon points="57 48 41 40 41 26 57 40 57 48" style="fill:#7d8d9c"/><polygon points="7 48 23 40 23 26 7 40 7 48" style="fill:#7d8d9c"/><polygon points="28 58 18 61 18 56 28 51 28 58" style="fill:#7d8d9c"/><polygon points="36 58 46 61 46 56 36 51 36 58" style="fill:#7d8d9c"/><polygon points="32 3 27 15 27 48 37 48 37 15 32 3" style="fill:#7d8d9c"/><rect x="31" y="43" width="2" height="2" style="fill:#cfdfe8"/><rect x="31" y="31" width="2" height="10" style="fill:#cfdfe8"/><rect x="31" y="56" width="2" height="5" style="fill:#394d5c"/><path d="M33.1,17.447,32,15.236,30.9,17.447l-1.79-.894,2-4a1.042,1.042,0,0,1,1.79,0l2,4Z" style="fill:#cfdfe8"/><rect x="14" y="26" width="4" height="12" style="fill:#394d5c"/><rect x="46" y="26" width="4" height="12" style="fill:#394d5c"/></g></svg>
